<?xml version="1.0" standalone="no"?>
<!DOCTYPE svg PUBLIC "-//W3C//DTD SVG 20010904//EN"
 "http://www.w3.org/TR/2001/REC-SVG-20010904/DTD/svg10.dtd">
<svg version="1.0" xmlns="http://www.w3.org/2000/svg"
 width="150.000000pt" height="150.000000pt" viewBox="0 0 150.000000 150.000000"
 preserveAspectRatio="xMidYMid meet">
<metadata>
Created by potrace 1.16, written by Peter Selinger 2001-2019
</metadata>
<g transform="translate(0.000000,150.000000) scale(0.100000,-0.100000)"
fill="#000000" stroke="none">
<path d="M990 1238 c-31 -124 -94 -249 -163 -324 l-49 -54 -56 51 c-117 105
-205 136 -284 101 -56 -25 -93 -68 -109 -131 l-12 -49 -33 26 c-26 20 -31 30
-23 43 22 42 -1 109 -39 109 -16 0 -32 -34 -32 -70 0 -27 -2 -30 -19 -20 -28
15 -74 12 -97 -5 -19 -15 -19 -15 5 -35 13 -11 31 -20 41 -20 16 0 17 -4 8
-34 -14 -45 -6 -66 24 -59 13 3 29 10 36 16 9 7 12 2 12 -22 0 -19 6 -34 15
-37 22 -9 65 23 77 57 l10 29 20 -25 c20 -26 58 -123 58 -150 0 -8 6 -15 14
-15 20 0 11 58 -20 128 -21 48 -22 52 -5 52 50 0 83 -23 107 -74 13 -28 24
-58 24 -67 0 -36 41 -147 70 -191 69 -104 234 -167 437 -168 73 0 130 -25 171
-76 l32 -39 35 19 c50 27 122 107 147 163 35 80 38 273 4 273 -8 0 -21 -11
-30 -25 -36 -55 -191 -130 -252 -123 -48 5 -37 25 30 56 82 39 150 107 190
192 29 60 31 73 30 170 0 115 -15 164 -68 228 -33 38 -39 39 -53 10 -20 -43
-105 -139 -191 -214 -133 -116 -138 -109 -14 21 61 64 112 125 112 134 0 52
-97 191 -133 191 -11 0 -20 -15 -27 -42z"/>
</g>
</svg>
