<?xml version="1.0" standalone="no"?>
<!DOCTYPE svg PUBLIC "-//W3C//DTD SVG 20010904//EN"
 "http://www.w3.org/TR/2001/REC-SVG-20010904/DTD/svg10.dtd">
<svg version="1.0" xmlns="http://www.w3.org/2000/svg"
 width="200.000000pt" height="200.000000pt" viewBox="0 0 200.000000 200.000000"
 preserveAspectRatio="xMidYMid meet">
<metadata>
Created by potrace 1.16, written by Peter Selinger 2001-2019
</metadata>
<g transform="translate(0.000000,200.000000) scale(0.100000,-0.100000)"
fill="#000000" stroke="none">
<path d="M1317 1612 c-48 -171 -135 -328 -236 -426 l-50 -49 -79 74 c-130 123
-244 168 -349 140 -79 -21 -142 -98 -163 -198 l-11 -52 -54 36 c-50 34 -52 38
-40 57 26 41 23 96 -8 132 l-23 27 -23 -29 c-19 -24 -22 -38 -19 -81 3 -29 2
-53 -1 -53 -2 0 -15 9 -27 21 -13 12 -37 21 -56 22 -37 1 -98 -20 -98 -34 0
-12 75 -49 100 -49 20 0 20 -1 5 -30 -16 -31 -20 -86 -7 -94 4 -2 27 4 49 14
40 18 73 60 73 95 0 18 10 19 34 2 16 -12 16 -14 -9 -27 -46 -25 -68 -88 -45
-131 10 -18 13 -18 40 -4 38 20 70 62 70 93 l0 25 26 -24 c35 -32 82 -132 90
-191 4 -31 12 -48 20 -48 10 0 12 9 7 33 -10 58 -44 150 -65 180 l-21 30 57
-5 c102 -8 131 -45 176 -222 36 -142 76 -222 145 -284 104 -95 242 -140 455
-149 164 -6 219 -26 291 -104 47 -50 47 -51 76 -35 137 70 225 212 239 381 6
62 -7 180 -21 193 -3 3 -23 -15 -45 -40 -70 -80 -199 -145 -321 -163 -42 -6
-46 -5 -58 21 -10 22 -10 29 0 33 64 21 177 91 226 139 160 158 201 421 96
613 -24 45 -79 108 -86 98 -1 -2 -20 -31 -41 -64 -77 -119 -313 -333 -457
-414 -58 -32 -79 -38 -79 -21 0 6 5 10 11 10 6 0 36 17 67 38 121 79 342 314
342 361 -1 59 -89 200 -147 233 l-29 17 -27 -97z"/>
</g>
</svg>
